<svg xmlns="http://www.w3.org/2000/svg" xmlns:xlink="http://www.w3.org/1999/xlink" width="48" height="48" version="1.1" viewBox="0 0 48 48"><title>android-tablet</title><desc>Created with Sketch.</desc><g id="Page-1" fill="none" fill-rule="evenodd" stroke="none" stroke-width="1"><g id="android-tablet"><rect id="Bounding-box" width="48" height="48" x="0" y="0" fill="#FFF" fill-opacity="0"/><path id="Rectangle-5" fill="#777088" d="M40.0001566,46 C40.0000615,45.9996719 40,2.00138927 40,2.00138927 C40,2.00037245 7.99984339,2 7.99984339,2 C7.99993846,2.00032807 8,45.9986107 8,45.9986107 C8,45.9996275 40.0001566,46 40.0001566,46 Z M6,2.00138927 C6,0.896052496 6.88989258,0 7.99970728,0 L40.0002927,0 C41.1047006,0 42,0.894938439 42,2.00138927 L42,45.9986107 C42,47.1039475 41.1101074,48 40.0002927,48 L7.99970728,48 C6.89529944,48 6,47.1050616 6,45.9986107 L6,2.00138927 Z"/><rect id="Rectangle-8" width="30" height="34" x="9" y="7" fill="#777088"/><path id="Combined-Shape" fill="#FFF" d="M25.0867553,27.0681395 L22.9132157,27.0681395 L22.9132157,29.3331166 C22.9132157,29.6933255 22.708733,29.7499911 22.4565933,29.7499911 C22.2043895,29.7499911 21.999971,29.6933255 21.999971,29.3331166 L21.999971,27.0681395 L21.359375,27.0681395 C21.1610093,27.0681395 21,26.9496421 21,26.8034886 L21,23.3327904 C21,23.186637 21.1610093,23.0681395 21.359375,23.0681395 L26.6408046,23.0681395 C26.8391703,23.0681395 27,23.186637 27,23.3327904 L27,26.8034886 C27,26.9496421 26.8391703,27.0681395 26.6408046,27.0681395 L26,27.0681395 L26,29.3331304 C26,29.6933393 25.7955173,29.7500049 25.5433776,29.7500049 C25.2911738,29.7500049 25.0867553,29.6933393 25.0867553,29.3331304 L25.0867553,27.0681395 Z M19.9132447,26.5570622 C19.9132447,26.9397837 19.7087764,27.2499905 19.4565903,27.2499905 C19.2044042,27.2499905 19,26.9397837 19,26.5570622 L19,23.4430214 C19,23.0602999 19.2044042,22.7499957 19.4565903,22.7499957 C19.7087764,22.7499957 19.9132447,23.0602999 19.9132447,23.4430214 L19.9132447,26.5570622 Z M29,26.5570622 C29,26.9397837 28.7955317,27.2499905 28.5433456,27.2499905 C28.2911594,27.2499905 28.0867553,26.9397837 28.0867553,26.5570622 L28.0867553,23.4430214 C28.0867553,23.0602999 28.2911594,22.7499957 28.5433456,22.7499957 C28.7955317,22.7499957 29,23.0602999 29,23.4430214 L29,26.5570622 Z M21,22 C21,22 21.0667882,18.9894015 23.9999548,19.0000281 C26.9055566,19.0105483 27,22 27,22 L21,22 Z M20.999971,18 L21.999971,18 L21.999971,19 L20.999971,19 L20.999971,18 Z M25.999971,18 L26.999971,18 L26.999971,19 L25.999971,19 L25.999971,18 Z"/><rect id="Rectangle-9" width="6" height="1" x="21" y="4" fill="#777088"/><rect id="Rectangle-9-Copy" width="6" height="1" x="21" y="43" fill="#777088"/></g></g></svg>