<svg xmlns="http://www.w3.org/2000/svg" xmlns:xlink="http://www.w3.org/1999/xlink" width="48" height="48" version="1.1" viewBox="0 0 48 48"><title>Android</title><desc>Created with Sketch.</desc><g id="Page-1" fill="none" fill-rule="evenodd" stroke="none" stroke-width="1"><rect id="Bounding-box" width="48" height="48" x="0" y="0" fill="#FFF" fill-opacity="0"/><g id="Android"><rect id="Rectangle-6" width="26" height="21" x="11" y="17" fill="#777088" rx="2"/><path id="Combined-Shape" fill="#777088" d="M11.0843696,16 C11.4562078,12.9479729 13.4471102,3.96189045 23.9998042,4.00012162 C34.4457814,4.03794315 36.5070267,12.9609063 36.9061643,16 L11.0843696,16 Z"/><rect id="Rectangle-Copy" width="5" height="16" x="38" y="17" fill="#777088" rx="2.5"/><rect id="Rectangle-Copy-3" width="5" height="19" x="26" y="28" fill="#777088" rx="2.5"/><rect id="Rectangle" width="5" height="16" x="5" y="17" fill="#777088" rx="2.5"/><rect id="Rectangle-Copy-2" width="5" height="19" x="17" y="28" fill="#777088" rx="2.5"/><circle id="Oval" cx="19" cy="10" r="1" fill="#FFF"/><circle id="Oval-Copy" cx="29" cy="10" r="1" fill="#FFF"/><rect id="Rectangle-7" width="1" height="7" x="29.889" y="1.01" fill="#777088" rx=".5" transform="translate(30.388830, 4.510150) rotate(-335.000000) translate(-30.388830, -4.510150)"/><rect id="Rectangle-7" width="1" height="7" x="16.889" y="1.01" fill="#777088" rx=".5" transform="translate(17.388830, 4.510150) rotate(-25.000000) translate(-17.388830, -4.510150)"/></g></g></svg>